# xmcd CD database file
#
# Track frame offsets:
#	150
#	33240
#	69972
#	109438
#	138374
#	176104
#
# Disc length: 2762 seconds
#
# Revision: 1
# Processed by: cddbd v1.5.2PL0 Copyright (c) Steve Scherf et al.
# Submitted via: CDex 1.51
#
DISCID=500ac806
DTITLE=Tomas Walker - Aromatherapy
DYEAR=2000
DGENRE=New Age
TTITLE0=Rose
TTITLE1=Lavender
TTITLE2=Bergamont
TTITLE3=Jasmine
TTITLE4=Clove
TTITLE5=Cedar
EXTD=YEAR: 2000
EXTT0=
EXTT1=
EXTT2=
EXTT3=
EXTT4=
EXTT5=
PLAYORDER=
